<svg width="1200" height="630" viewBox="0 0 1200 630" fill="none" xmlns="http://www.w3.org/2000/svg">
  <defs>
    <linearGradient id="bgGrad" x1="0%" y1="0%" x2="100%" y2="100%">
      <stop offset="0%" stop-color="#0A1628"/>
      <stop offset="50%" stop-color="#1A2744"/>
      <stop offset="100%" stop-color="#0A1628"/>
    </linearGradient>
    <linearGradient id="textGrad" x1="0%" y1="0%" x2="100%" y2="0%">
      <stop offset="0%" stop-color="#00D4AA"/>
      <stop offset="100%" stop-color="#0055FF"/>
    </linearGradient>
    <radialGradient id="glow1" cx="20%" cy="30%" r="50%">
      <stop offset="0%" stop-color="#00D4AA" stop-opacity="0.25"/>
      <stop offset="100%" stop-color="#00D4AA" stop-opacity="0"/>
    </radialGradient>
    <radialGradient id="glow2" cx="80%" cy="70%" r="50%">
      <stop offset="0%" stop-color="#0055FF" stop-opacity="0.2"/>
      <stop offset="100%" stop-color="#0055FF" stop-opacity="0"/>
    </radialGradient>
  </defs>

  <rect width="1200" height="630" fill="url(#bgGrad)"/>
  <ellipse cx="200" cy="200" rx="350" ry="280" fill="url(#glow1)"/>
  <ellipse cx="1000" cy="450" rx="380" ry="280" fill="url(#glow2)"/>

  <g opacity="0.08">
    <line x1="0" y1="105" x2="1200" y2="105" stroke="#ffffff" stroke-width="1"/>
    <line x1="0" y1="210" x2="1200" y2="210" stroke="#ffffff" stroke-width="1"/>
    <line x1="0" y1="315" x2="1200" y2="315" stroke="#ffffff" stroke-width="1"/>
    <line x1="0" y1="420" x2="1200" y2="420" stroke="#ffffff" stroke-width="1"/>
    <line x1="0" y1="525" x2="1200" y2="525" stroke="#ffffff" stroke-width="1"/>
    <line x1="200" y1="0" x2="200" y2="630" stroke="#ffffff" stroke-width="1"/>
    <line x1="400" y1="0" x2="400" y2="630" stroke="#ffffff" stroke-width="1"/>
    <line x1="600" y1="0" x2="600" y2="630" stroke="#ffffff" stroke-width="1"/>
    <line x1="800" y1="0" x2="800" y2="630" stroke="#ffffff" stroke-width="1"/>
    <line x1="1000" y1="0" x2="1000" y2="630" stroke="#ffffff" stroke-width="1"/>
  </g>

  <text x="80" y="70" font-family="Arial, sans-serif" font-size="36" font-weight="700" fill="#ffffff">Anton<tspan fill="#0055FF">Logic</tspan></text>

  <rect x="80" y="160" width="180" height="36" rx="18" fill="#00D4AA" fill-opacity="0.2"/>
  <text x="170" y="184" text-anchor="middle" font-family="Arial, sans-serif" font-size="14" font-weight="600" fill="#00D4AA">SERVICIOS</text>

  <text x="80" y="290" font-family="Arial, sans-serif" font-size="56" font-weight="700" fill="#ffffff">Modernizamos tu</text>
  <text x="80" y="365" font-family="Arial, sans-serif" font-size="56" font-weight="700" fill="url(#textGrad)">Sistema Legacy</text>

  <text x="80" y="430" font-family="Arial, sans-serif" font-size="22" fill="#9CA3AF">Migraciones seguras | Integraciones modernas | Soporte continuo</text>

  <rect x="80" y="480" width="160" height="40" rx="20" fill="#ffffff" fill-opacity="0.08" stroke="#ffffff" stroke-opacity="0.15" stroke-width="1"/>
  <text x="160" y="507" text-anchor="middle" font-family="Arial, sans-serif" font-size="14" fill="#ffffff">Desarrollo Web</text>

  <rect x="260" y="480" width="180" height="40" rx="20" fill="#ffffff" fill-opacity="0.08" stroke="#ffffff" stroke-opacity="0.15" stroke-width="1"/>
  <text x="350" y="507" text-anchor="middle" font-family="Arial, sans-serif" font-size="14" fill="#ffffff">Software a Medida</text>

  <rect x="460" y="480" width="140" height="40" rx="20" fill="#ffffff" fill-opacity="0.08" stroke="#ffffff" stroke-opacity="0.15" stroke-width="1"/>
  <text x="530" y="507" text-anchor="middle" font-family="Arial, sans-serif" font-size="14" fill="#ffffff">APIs y Backend</text>

  <rect x="620" y="480" width="130" height="40" rx="20" fill="#00D4AA" fill-opacity="0.25" stroke="#00D4AA" stroke-opacity="0.4" stroke-width="1"/>
  <text x="685" y="507" text-anchor="middle" font-family="Arial, sans-serif" font-size="14" font-weight="600" fill="#00D4AA">Legacy</text>

  <g transform="translate(750, 140)">
    <rect x="0" y="0" width="180" height="100" rx="8" fill="#FF6B35" fill-opacity="0.1" stroke="#FF6B35" stroke-opacity="0.3" stroke-width="1"/>
    <text x="90" y="30" text-anchor="middle" font-family="monospace" font-size="11" fill="#FF6B35">COBOL / VB6</text>
    <text x="90" y="50" text-anchor="middle" font-family="monospace" font-size="11" fill="#9CA3AF">status: deprecated</text>
    <text x="90" y="70" text-anchor="middle" font-family="monospace" font-size="11" fill="#9CA3AF">support: none</text>

    <line x1="200" y1="50" x2="260" y2="50" stroke="#00D4AA" stroke-width="2"/>
    <polygon points="255,43 270,50 255,57" fill="#00D4AA"/>

    <rect x="270" y="0" width="180" height="100" rx="8" fill="#00D4AA" fill-opacity="0.15" stroke="#00D4AA" stroke-opacity="0.4" stroke-width="1"/>
    <text x="360" y="30" text-anchor="middle" font-family="monospace" font-size="11" fill="#00D4AA">Node.js / React</text>
    <text x="360" y="50" text-anchor="middle" font-family="monospace" font-size="11" fill="#ffffff">status: production</text>
    <text x="360" y="70" text-anchor="middle" font-family="monospace" font-size="11" fill="#ffffff">cloud: enabled</text>
  </g>

  <circle cx="880" cy="280" r="20" fill="#00D4AA"/>
  <path d="M872 280 L877 285 L888 274" stroke="#ffffff" stroke-width="3" stroke-linecap="round" stroke-linejoin="round" fill="none"/>
  <text x="920" y="288" font-family="Arial, sans-serif" font-size="18" font-weight="600" fill="#ffffff">Migracion exitosa</text>

  <circle cx="880" cy="340" r="20" fill="#0055FF"/>
  <text x="880" y="346" text-anchor="middle" font-family="Arial, sans-serif" font-size="14" font-weight="700" fill="#ffffff">3x</text>
  <text x="920" y="348" font-family="Arial, sans-serif" font-size="18" font-weight="600" fill="#ffffff">Mas rendimiento</text>

  <circle cx="1120" cy="560" r="40" fill="#0055FF" fill-opacity="0.2" stroke="#0055FF" stroke-opacity="0.4" stroke-width="1"/>
  <circle cx="1100" cy="100" r="6" fill="#00D4AA" opacity="0.8"/>
  <circle cx="1130" cy="120" r="4" fill="#0055FF" opacity="0.6"/>
</svg>